<svg xmlns="http://www.w3.org/2000/svg" viewBox="0 0 27.5 27.5"><defs><style>.cls-1{fill:#3753a4;}.cls-2{fill:#fbfcfd;}</style></defs><title>UvmoYU.tif</title><g id="Laag_2" data-name="Laag 2"><g id="Laag_2-2" data-name="Laag 2"><g id="UvmoYU.tif"><path class="cls-1" d="M27.5,0V27.5H19.07c-.16-3.48-.08-7,0-10.44,0,0,.06-.09.14-.2h3.37l.58-4.33H19c0-1,0-1.88,0-2.76,0-1.19.56-1.71,1.77-1.73.78,0,1.56,0,2.36,0V4.17c-1.37,0-2.68-.08-4,0A4.65,4.65,0,0,0,14.65,9v3.57H11.1v4.3h3.57V27.5H0V0Z"/><path class="cls-2" d="M14.67,27.5V16.88H11.1v-4.3h3.55V9a4.65,4.65,0,0,1,4.49-4.83c1.3-.09,2.61,0,4,0V8c-.8,0-1.58,0-2.36,0-1.21,0-1.74.54-1.77,1.73,0,.88,0,1.76,0,2.76h4.13l-.58,4.33H19.17c-.08.11-.14.16-.14.2,0,3.48-.12,7,0,10.44Z"/></g></g></g></svg>